<svg xmlns="http://www.w3.org/2000/svg" xmlns:xlink="http://www.w3.org/1999/xlink" viewBox="0 0 512 512">
  <defs>
    <!-- Symbol for the rotating circle -->
    <symbol id="c" viewBox="0 0 178 178">
      <path fill="none" stroke="#72b9d5" stroke-linecap="round" stroke-linejoin="round" stroke-width="10"
            d="M163.6 110.4a84.8 84.8 0 01-85.4-84.3A83.3 83.3 0 0181 5 84.7 84.7 0 005 88.7 84.8 84.8 0 0090.4 173a85.2 85.2 0 0082.6-63.1 88 88 0 01-9.4.5Z"/>
    </symbol>

    <!-- Symbol for the stroke path -->
    <symbol id="d" viewBox="0 0 359 231">
      <path fill="none" stroke="#e2e8f0" stroke-linecap="round" stroke-linejoin="round" stroke-width="15"
            d="M295.5 223.5a56 56 0 000-112l-2.5.1a83.9 83.9 0 00-153-64.2 56 56 0 00-84.6 48.1 56.6 56.6 0 00.8 9 60 60 0 0011.2 119"/>
    </symbol>

    <!-- Symbol for the animated objects -->
    <symbol id="b" viewBox="0 0 435.5 371.5">
      <g clip-path="url(#a)">
        <use xlink:href="#c" width="178" height="178" transform="translate(77 118)">
          <!-- Rotate the circle for the spinning effect -->
          <animateTransform additive="sum" attributeName="transform" dur="6s" repeatCount="indefinite"
                            type="rotate" values="-15 86 86; 9 86 86; -15 86 86"/>
        </use>
      </g>
      <use xlink:href="#d" width="359" height="231" transform="translate(76.5 140.5)"/>
    </symbol>

    <!-- Animated rain bars -->
    <symbol id="e" overflow="visible" viewBox="0 0 128 56">
      <path fill="#3f7bd6" d="M8 56a8 8 0 01-8-8V8a8 8 0 0116 0v40a8 8 0 01-8 8Z" opacity="0">
        <animateTransform id="x1"
                          attributeName="transform"
                          type="translate"
                          values="0 -60; 0 60"
                          dur=".67s"
                          begin="0.5s; x1.end+0.67s"
                          additive="sum" />
        <animate id="y1"
                attributeName="opacity"
                values="0; 1; 0"
                keyTimes="0; .25; 1"
                dur=".67s"
                begin="0.5s; y1.end+0.67s" />
      </path>
      <path fill="#3f7bd6" d="M64 56a8 8 0 01-8-8V8a8 8 0 0116 0v40a8 8 0 01-8 8Z" opacity="0">
        <animateTransform id="x2"
                          attributeName="transform"
                          type="translate"
                          values="0 -60; 0 60"
                          dur=".67s"
                          begin="1.17s; x2.end+0.67s"
                          additive="sum" />
        <animate id="y2"
                attributeName="opacity"
                values="0; 1; 0"
                keyTimes="0; .25; 1"
                dur=".67s"
                begin="1.17s; y2.end+0.67s" />
      </path>
      <path fill="#3f7bd6" d="M120 56a8 8 0 01-8-8V8a8 8 0 0116 0v40a8 8 0 01-8 8Z" opacity="0">
        <animateTransform id="x3"
                          attributeName="transform"
                          type="translate"
                          values="0 -60; 0 60"
                          dur=".67s"
                          begin="0s; x3.end+0.67s"
                          additive="sum" />
        <animate id="y3"
                attributeName="opacity"
                values="0; 1; 0"
                keyTimes="0; .25; 1"
                dur=".67s"
                begin="0s; y3.end+0.67s" />
      </path>
    </symbol>

    <!-- Animated droplets/hail -->
    <symbol id="raindrops" overflow="visible" viewBox="0 0 136 24">
      <path
        fill="#86c3db"
        d="M12 0a12 12 0 1012 12A12 12 0 0012 0Z"
        opacity="0">
        <animateTransform
          id="x1"
          attributeName="transform"
          type="translate"
          values="0 -46; 0 86; -18 74"
          keyTimes="0; .71; 1"
          dur=".58s"
          begin="0s; x1.end+.42s"
          additive="sum" />
        <animate
          id="y1"
          attributeName="opacity"
          values="0; 1; 1; 0"
          keyTimes="0; .14; .71; 1"
          dur=".58s"
          begin="0s; y1.end+.42s" />
      </path>
      <path
        fill="#86c3db"
        d="M68 0a12 12 0 1012 12A12 12 0 0068 0Z"
        opacity="0">
        <animateTransform
          id="x2"
          attributeName="transform"
          type="translate"
          values="0 -46; 0 86; 0 74"
          keyTimes="0; .71; 1"
          dur=".58s"
          begin=".67s; x2.end+.42s"
          additive="sum" />
        <animate
          id="y2"
          attributeName="opacity"
          values="0; 1; 1; 0"
          keyTimes="0; .14; .71; 1"
          dur=".58s"
          begin=".67s; y2.end+.42s" />
      </path>
      <path
        fill="#86c3db"
        d="M124 0a12 12 0 1012 12 12 12 0 00-12-12Z"
        opacity="0">
        <animateTransform
          id="x3"
          attributeName="transform"
          type="translate"
          values="0 -46; 0 86; 18 74"
          keyTimes="0; .71; 1"
          dur=".58s"
          begin=".33s; x3.end+.42s"
          additive="sum" />
        <animate
          id="y3"
          attributeName="opacity"
          values="0; 1; 1; 0"
          keyTimes="0; .14; .71; 1"
          dur=".58s"
          begin=".33s; y3.end+.42s" />
      </path>
    </symbol>

    <!-- Symbol for the animation of the triangle -->
    <symbol id="f" viewBox="0 0 96 176">
      <path fill="#f6a823" d="M32 0 0 96h32l-16 80L96 64H48L80 0H32z">
        <!-- Animate the triangle shape -->
        <animate id="x1" attributeName="opacity" begin="0s; x1.end+.67s" dur="1.33s" keyTimes="0; .38; .5; .63; .75; .86; .94; 1"
                 values="1; 1; 0; 1; 0; 1; 0; 1"/>
      </path>
    </symbol>

    <!-- Clip path to mask the stroke -->
    <clipPath id="a">
      <path fill="none" d="M288 148a83.8 83.8 0 00-71.4 40 56 56 0 00-84.6 48 56.6 56.6 0 00.8 9A60 60 0 0084 304H0V0h288Z"/>
    </clipPath>
  </defs>

  <!-- Use the defined symbols to display the animation -->
  <use xlink:href="#b" width="435.5" height="371.5"/>
  <use xlink:href="#e" width="128" height="56" transform="translate(192 344)"/>
  <use xlink:href="#raindrops" width="136" height="24" transform="translate(188 350)" />
  <use xlink:href="#f" width="96" height="176" transform="translate(208 293)"/>
</svg>
